<svg width="64" height="64" viewBox="0 0 64 64" fill="none" xmlns="http://www.w3.org/2000/svg">
<path d="M39 6.5C44.664 6.5 48.926 9.53 51 13.448C51.0117 12.4761 51.3378 11.5342 51.9294 10.763C52.5211 9.99189 53.3465 9.43304 54.2822 9.17007C55.2179 8.90711 56.2136 8.95416 57.1203 9.3042C58.027 9.65424 58.7961 10.2884 59.3123 11.1119C59.8286 11.9354 60.0644 12.9039 59.9844 13.8726C59.9044 14.8413 59.5129 15.758 58.8686 16.4856C58.2242 17.2133 57.3615 17.7127 56.4097 17.9093C55.4578 18.1058 54.4679 17.9889 53.588 17.576L53.506 17.65L52.392 18.514C52.504 21.366 51.5 24.234 49.158 26.398C46.73 28.646 43.01 30 38 30V50H39C40.3261 50 41.5979 50.5268 42.5355 51.4645C43.4732 52.4021 44 53.6739 44 55C44 56.3261 43.4732 57.5979 42.5355 58.5355C41.5979 59.4732 40.3261 60 39 60H9C7.67392 60 6.40215 59.4732 5.46447 58.5355C4.52678 57.5979 4 56.3261 4 55C4 53.6739 4.52678 52.4021 5.46447 51.4645C6.40215 50.5268 7.67392 50 9 50H10V22H9C7.67392 22 6.40215 21.4732 5.46447 20.5355C4.52678 19.5979 4 18.3261 4 17C4 15.6739 4.52678 14.4021 5.46447 13.4645C6.40215 12.5268 7.67392 12 9 12H39C40.3261 12 41.5979 12.5268 42.5355 13.4645C43.4732 14.4021 44 15.6739 44 17C44 18.3261 43.4732 19.5979 42.5355 20.5355C41.5979 21.4732 40.3261 22 39 22H38V25.772L49.06 16.606C47.98 12.874 44.366 9.5 39 9.5C38.6022 9.5 38.2206 9.34196 37.9393 9.06066C37.658 8.77936 37.5 8.39782 37.5 8C37.5 7.60218 37.658 7.22064 37.9393 6.93934C38.2206 6.65804 38.6022 6.5 39 6.5ZM36 27V24H12V27H36ZM12 30V32H30.482L32.896 30H12ZM12 35V37H24.448L26.862 35H12ZM12 40V42H18.414L20.828 40H12ZM12 45V48H36V45H18.276L17.442 45.646C17.2169 45.8276 16.9302 45.9151 16.642 45.8901C16.3539 45.8652 16.0865 45.7297 15.896 45.512C15.7648 45.3692 15.6779 45.1913 15.646 45H12ZM36 42V40H24.716L22.14 42H36ZM36 37V35H31.158L28.58 37H36ZM36 32V31.24L35.02 32H36ZM41.93 26.638C44.274 26.164 45.964 25.266 47.122 24.196C48.096 23.296 48.742 22.226 49.092 21.076L41.93 26.638ZM57 13.5C57 13.1022 56.842 12.7206 56.5607 12.4393C56.2794 12.158 55.8978 12 55.5 12C55.1022 12 54.7206 12.158 54.4393 12.4393C54.158 12.7206 54 13.1022 54 13.5C54 13.8978 54.158 14.2794 54.4393 14.5607C54.7206 14.842 55.1022 15 55.5 15C55.8978 15 56.2794 14.842 56.5607 14.5607C56.842 14.2794 57 13.8978 57 13.5Z" fill="#FCF8F5"/>
</svg>
