<svg width="374" height="214" viewBox="0 0 374 214" fill="none" xmlns="http://www.w3.org/2000/svg">
<g clip-path="url(#clip0_984_2729)">
<path d="M121.364 174.811C119.999 175.136 119.331 176.164 119.476 177.641L124.168 176.515C123.847 175.166 122.747 174.477 121.364 174.811ZM121.364 174.811C119.999 175.136 119.331 176.164 119.476 177.641L124.168 176.515C123.847 175.166 122.747 174.477 121.364 174.811ZM121.364 174.811C119.999 175.136 119.331 176.164 119.476 177.641L124.168 176.515C123.847 175.166 122.747 174.477 121.364 174.811ZM134.879 174.699C134.481 173.034 133.21 172.071 131.613 172.456C130.016 172.842 129.37 174.263 129.768 175.928C130.175 177.606 131.395 178.582 132.991 178.201C134.588 177.816 135.29 176.399 134.879 174.699ZM134.879 174.699C134.481 173.034 133.21 172.071 131.613 172.456C130.016 172.842 129.37 174.263 129.768 175.928C130.175 177.606 131.395 178.582 132.991 178.201C134.588 177.816 135.29 176.399 134.879 174.699ZM121.364 174.811C119.999 175.136 119.331 176.164 119.476 177.641L124.168 176.515C123.847 175.166 122.747 174.477 121.364 174.811ZM121.364 174.811C119.999 175.136 119.331 176.164 119.476 177.641L124.168 176.515C123.847 175.166 122.747 174.477 121.364 174.811ZM134.879 174.699C134.481 173.034 133.21 172.071 131.613 172.456C130.016 172.842 129.37 174.263 129.768 175.928C130.175 177.606 131.395 178.582 132.991 178.201C134.588 177.816 135.29 176.399 134.879 174.699ZM165.206 167.439C164.799 165.739 163.416 164.819 161.85 165.196C160.27 165.577 159.469 167.019 159.876 168.715C160.287 170.414 161.653 171.335 163.232 170.958C164.799 170.581 165.612 169.134 165.206 167.439ZM165.206 167.439C164.799 165.739 163.416 164.819 161.85 165.196C160.27 165.577 159.469 167.019 159.876 168.715C160.287 170.414 161.653 171.335 163.232 170.958C164.799 170.581 165.612 169.134 165.206 167.439ZM134.879 174.699C134.481 173.034 133.21 172.071 131.613 172.456C130.016 172.842 129.37 174.263 129.768 175.928C130.175 177.606 131.395 178.582 132.991 178.201C134.588 177.816 135.29 176.399 134.879 174.699ZM121.364 174.811C119.999 175.136 119.331 176.164 119.476 177.641L124.168 176.515C123.847 175.166 122.747 174.477 121.364 174.811ZM121.364 174.811C119.999 175.136 119.331 176.164 119.476 177.641L124.168 176.515C123.847 175.166 122.747 174.477 121.364 174.811ZM134.879 174.699C134.481 173.034 133.21 172.071 131.613 172.456C130.016 172.842 129.37 174.263 129.768 175.928C130.175 177.606 131.395 178.582 132.991 178.201C134.588 177.816 135.29 176.399 134.879 174.699ZM165.206 167.439C164.799 165.739 163.416 164.819 161.85 165.196C160.27 165.577 159.469 167.019 159.876 168.715C160.287 170.414 161.653 171.335 163.232 170.958C164.799 170.581 165.612 169.134 165.206 167.439ZM165.206 167.439C164.799 165.739 163.416 164.819 161.85 165.196C160.27 165.577 159.469 167.019 159.876 168.715C160.287 170.414 161.653 171.335 163.232 170.958C164.799 170.581 165.612 169.134 165.206 167.439ZM134.879 174.699C134.481 173.034 133.21 172.071 131.613 172.456C130.016 172.842 129.37 174.263 129.768 175.928C130.175 177.606 131.395 178.582 132.991 178.201C134.588 177.816 135.29 176.399 134.879 174.699ZM121.364 174.811C119.999 175.136 119.331 176.164 119.476 177.641L124.168 176.515C123.847 175.166 122.747 174.477 121.364 174.811ZM121.364 174.811C119.999 175.136 119.331 176.164 119.476 177.641L124.168 176.515C123.847 175.166 122.747 174.477 121.364 174.811ZM134.879 174.699C134.481 173.034 133.21 172.071 131.613 172.456C130.016 172.842 129.37 174.263 129.768 175.928C130.175 177.606 131.395 178.582 132.991 178.201C134.588 177.816 135.29 176.399 134.879 174.699ZM165.206 167.439C164.799 165.739 163.416 164.819 161.85 165.196C160.27 165.577 159.469 167.019 159.876 168.715C160.287 170.414 161.653 171.335 163.232 170.958C164.799 170.581 165.612 169.134 165.206 167.439ZM182.223 160.2C180.857 160.529 180.189 161.553 180.331 163.03L185.027 161.904C184.701 160.555 183.605 159.866 182.223 160.2ZM182.223 160.2C180.857 160.529 180.189 161.553 180.331 163.03L185.027 161.904C184.701 160.555 183.605 159.866 182.223 160.2ZM165.206 167.439C164.799 165.739 163.416 164.819 161.85 165.196C160.27 165.577 159.469 167.019 159.876 168.715C160.287 170.414 161.653 171.335 163.232 170.958C164.799 170.581 165.612 169.134 165.206 167.439ZM134.879 174.699C134.481 173.034 133.21 172.071 131.613 172.456C130.016 172.842 129.37 174.263 129.768 175.928C130.175 177.606 131.395 178.582 132.991 178.201C134.588 177.816 135.29 176.399 134.879 174.699ZM121.364 174.811C119.999 175.136 119.331 176.164 119.476 177.641L124.168 176.515C123.847 175.166 122.747 174.477 121.364 174.811ZM121.364 174.811C119.999 175.136 119.331 176.164 119.476 177.641L124.168 176.515C123.847 175.166 122.747 174.477 121.364 174.811ZM134.879 174.699C134.481 173.034 133.21 172.071 131.613 172.456C130.016 172.842 129.37 174.263 129.768 175.928C130.175 177.606 131.395 178.582 132.991 178.201C134.588 177.816 135.29 176.399 134.879 174.699ZM165.206 167.439C164.799 165.739 163.416 164.819 161.85 165.196C160.27 165.577 159.469 167.019 159.876 168.715C160.287 170.414 161.653 171.335 163.232 170.958C164.799 170.581 165.612 169.134 165.206 167.439ZM182.223 160.2C180.857 160.529 180.189 161.553 180.331 163.03L185.027 161.904C184.701 160.555 183.605 159.866 182.223 160.2ZM182.223 160.2C180.857 160.529 180.189 161.553 180.331 163.03L185.027 161.904C184.701 160.555 183.605 159.866 182.223 160.2ZM165.206 167.439C164.799 165.739 163.416 164.819 161.85 165.196C160.27 165.577 159.469 167.019 159.876 168.715C160.287 170.414 161.653 171.335 163.232 170.958C164.799 170.581 165.612 169.134 165.206 167.439ZM134.879 174.699C134.481 173.034 133.21 172.071 131.613 172.456C130.016 172.842 129.37 174.263 129.768 175.928C130.175 177.606 131.395 178.582 132.991 178.201C134.588 177.816 135.29 176.399 134.879 174.699ZM121.364 174.811C119.999 175.136 119.331 176.164 119.476 177.641L124.168 176.515C123.847 175.166 122.747 174.477 121.364 174.811ZM121.364 174.811C119.999 175.136 119.331 176.164 119.476 177.641L124.168 176.515C123.847 175.166 122.747 174.477 121.364 174.811ZM134.879 174.699C134.481 173.034 133.21 172.071 131.613 172.456C130.016 172.842 129.37 174.263 129.768 175.928C130.175 177.606 131.395 178.582 132.991 178.201C134.588 177.816 135.29 176.399 134.879 174.699ZM165.206 167.439C164.799 165.739 163.416 164.819 161.85 165.196C160.27 165.577 159.469 167.019 159.876 168.715C160.287 170.414 161.653 171.335 163.232 170.958C164.799 170.581 165.612 169.134 165.206 167.439ZM182.223 160.2C180.857 160.529 180.189 161.553 180.331 163.03L185.027 161.904C184.701 160.555 183.605 159.866 182.223 160.2ZM217.173 154.96C216.766 153.265 215.383 152.344 213.816 152.721C212.237 153.102 211.436 154.54 211.843 156.24C212.254 157.939 213.619 158.86 215.199 158.479C216.766 158.106 217.579 156.659 217.173 154.96ZM217.173 154.96C216.766 153.265 215.383 152.344 213.816 152.721C212.237 153.102 211.436 154.54 211.843 156.24C212.254 157.939 213.619 158.86 215.199 158.479C216.766 158.106 217.579 156.659 217.173 154.96ZM182.223 160.2C180.857 160.529 180.189 161.553 180.331 163.03L185.027 161.904C184.701 160.555 183.605 159.866 182.223 160.2ZM165.206 167.439C164.799 165.739 163.416 164.819 161.85 165.196C160.27 165.577 159.469 167.019 159.876 168.715C160.287 170.414 161.653 171.335 163.232 170.958C164.799 170.581 165.612 169.134 165.206 167.439ZM134.879 174.699C134.481 173.034 133.21 172.071 131.613 172.456C130.016 172.842 129.37 174.263 129.768 175.928C130.175 177.606 131.395 178.582 132.991 178.201C134.588 177.816 135.29 176.399 134.879 174.699ZM121.364 174.811C119.999 175.136 119.331 176.164 119.476 177.641L124.168 176.515C123.847 175.166 122.747 174.477 121.364 174.811ZM373.621 70.6673C372.521 69.2246 370.573 68.2699 370.137 66.275L366.755 70.389C356.639 81.0187 343.864 89.1354 329.767 93.4036C329.377 93.3608 327.883 91.7639 327.498 91.3487C314.167 76.9774 302.184 53.1923 278.827 56.0263C277.398 56.2018 276.032 56.6428 274.606 56.8054L273.296 50.9191C251.964 34.5828 231.249 17.4546 210.349 0.574707L8.16646 51.2658C3.45309 53.0425 1.00437 57.7601 0.893066 62.649L33.3943 207.911C34.7899 211.674 38.159 213.626 42.0719 213.823C65.339 208.823 88.3279 202.483 111.471 196.901C121.899 194.383 132.409 192.166 142.833 189.632C177.334 181.254 211.774 172.632 246.288 164.292L282.03 94.3711C282.509 92.8599 281.559 90.6509 281.37 89.0841C287.287 94.7221 294.676 99.2985 302.737 101.109C307.844 102.252 313.032 102.364 318.23 101.799C321.419 101.452 324.514 100.557 327.661 100.005C338.059 111.225 351.202 119.556 366.027 123.606C366.232 122.031 367.743 120.108 368.005 118.683C368.15 117.891 366.605 117.929 365.873 117.702C353.642 113.845 342.541 107.312 333.77 97.9243C349.168 92.8556 363.398 83.2448 373.621 70.6673ZM9.3052 92.1664L9.77183 92.8299C18.4237 130.426 26.8187 168.094 34.9911 205.801L9.3052 92.1664ZM12.3875 52.5073L12.5245 51.8866C77.36 35.7259 142.221 19.6336 206.984 3.19039L206.864 3.82397L12.3875 52.5073ZM197.116 59.8492L204.107 57.85L185.57 127.981C185.468 128.302 185.386 128.542 185.057 128.7C184.599 128.914 179.072 130.186 178.832 129.976L197.116 59.8492ZM163.772 86.1644C160.878 77.4141 162.021 66.5575 173.031 65.3032C182.788 64.1944 186.628 73.3472 187.047 81.5838C187.792 96.1776 168.194 99.5254 163.772 86.1644ZM58.0014 170.153C56.9311 169.918 51.8796 168.543 51.4643 167.854L50.6081 149.086C57.4021 153.072 66.8245 155.041 74.2306 151.646C81.7651 148.2 83.9142 139.176 81.1744 131.774C76.1571 118.229 56.7728 122.001 47.9368 129.36L45.6978 79.4476L82.4544 70.3847L86.5641 87.2261L61.5032 93.4036L62.7319 107.167C68.1345 105.159 74.6758 104.885 80.2411 106.405C95.0619 110.45 102.395 128.11 100.721 142.382C98.2426 163.492 77.8866 174.52 58.0014 170.153ZM86.4742 179.999C85.9091 180.136 85.3312 179.781 85.1942 179.216C85.0529 178.634 85.4125 178.073 85.9776 177.936C86.547 177.799 87.1207 178.137 87.2576 178.719C87.3946 179.284 87.0393 179.862 86.4742 179.999ZM78.6357 192.534L75.7461 180.496L77.3771 180.106L79.9029 190.629L85.1985 189.358L85.5624 190.873L78.6357 192.534ZM88.1267 190.257L86.1746 182.114L87.7371 181.737L89.6935 189.88L88.1267 190.257ZM103.675 186.524L102.489 181.579C102.181 180.295 101.291 179.734 100.19 179.999C99.0089 180.282 98.4267 181.305 98.7392 182.602L99.8994 187.431L98.3497 187.799L97.1596 182.842C96.8513 181.558 95.9823 181.027 94.8864 181.292C93.7048 181.575 93.1183 182.576 93.4265 183.878L94.5867 188.707L93.0241 189.079L91.0677 180.941L92.4676 180.603L92.87 181.635C93.1055 180.766 93.8418 180.029 94.9891 179.751C96.2563 179.447 97.3051 179.862 97.9687 180.778C98.1057 179.674 98.9362 178.805 100.203 178.501C102.066 178.051 103.478 178.946 103.928 180.826L105.208 186.155L103.675 186.524ZM105.507 174.34C105.37 173.758 105.726 173.193 106.295 173.06C106.86 172.923 107.434 173.261 107.575 173.843C107.708 174.408 107.357 174.986 106.787 175.123C106.222 175.26 105.644 174.905 105.507 174.34ZM108.44 185.381L106.488 177.238L108.05 176.861L110.007 185.004L108.44 185.381ZM114.069 184.028L112.43 177.204L110.833 177.585L110.516 176.271L112.113 175.885L111.501 173.338L113.068 172.966L113.68 175.513L115.277 175.128L115.593 176.442L113.997 176.827L115.632 183.651L114.069 184.028ZM123.175 182.054C120.778 182.628 118.714 181.292 118.106 178.762C117.494 176.215 118.684 174.062 121.047 173.497C123.363 172.94 125.264 174.173 125.842 176.587L125.983 177.17L119.69 178.698C120.221 180.385 121.347 181.117 122.897 180.748C124.113 180.453 124.789 179.764 124.832 178.766L126.3 178.415C126.317 180.26 125.187 181.57 123.175 182.054ZM136.031 178.754L135.543 177.307C135.277 178.548 134.314 179.379 133.017 179.691C130.65 180.256 128.796 178.835 128.201 176.356C127.602 173.86 128.608 171.681 131.022 171.099C132.272 170.799 133.454 171.099 134.241 171.964L132.94 166.54L134.485 166.167L137.426 178.42L136.031 178.754ZM139.25 154.609C111.214 157.85 100.31 114.218 100.122 93.3051C99.9722 76.7505 106.188 58.7447 125.363 57.7044C149.799 56.3816 159.94 91.8367 162.162 110.789C164.208 128.255 160.702 152.13 139.25 154.609ZM151.678 175.192C148.245 176.014 145.376 174.1 144.477 170.371C143.587 166.66 145.329 163.582 148.78 162.751C151.49 162.101 153.96 163.218 155 165.572L153.253 165.992C152.427 164.536 150.852 163.911 149.105 164.331C146.673 164.913 145.513 167.131 146.19 169.943C146.866 172.756 148.904 174.203 151.335 173.621C153.099 173.197 154.268 171.913 154.362 170.32L156.096 169.905C156.152 172.426 154.388 174.541 151.678 175.192ZM163.57 172.353C161.122 172.944 158.9 171.609 158.296 169.096C157.693 166.583 159.067 164.387 161.516 163.8C163.947 163.214 166.165 164.549 166.768 167.062C167.372 169.575 165.998 171.771 163.57 172.353ZM170.583 170.461L167.642 158.209L169.204 157.832L172.145 170.085L170.583 170.461ZM175.544 169.267L172.603 157.015L174.166 156.642L177.107 168.894L175.544 169.267ZM184.034 167.443C181.636 168.017 179.573 166.681 178.965 164.151C178.353 161.604 179.543 159.451 181.906 158.885C184.222 158.329 186.118 159.562 186.701 161.976L186.838 162.559L180.549 164.087C181.08 165.774 182.206 166.506 183.755 166.137C184.971 165.842 185.647 165.153 185.69 164.155L187.154 163.804C187.176 165.649 186.046 166.959 184.034 167.443ZM194.055 165.037C191.658 165.611 189.672 164.292 189.055 161.728C188.443 159.181 189.633 157.028 192.013 156.458C194.064 155.966 195.772 156.788 196.491 158.534L194.929 158.911C194.415 157.944 193.447 157.593 192.399 157.845C190.917 158.201 190.177 159.575 190.596 161.339C191.02 163.089 192.24 163.993 193.721 163.637C194.834 163.368 195.528 162.589 195.579 161.553L197.146 161.176C197.253 163.017 196.02 164.562 194.055 165.037ZM207.763 89.144C218.2 88.0181 222.507 98.3824 221.775 107.265C221.12 115.258 214.36 119.509 206.736 117.587C195.9 114.856 192.929 90.7494 207.763 89.144ZM201.252 163.098L199.612 156.27L198.015 156.655L197.698 155.341L199.3 154.956L198.687 152.408L200.25 152.032L200.862 154.579L202.459 154.198L202.776 155.512L201.179 155.897L202.814 162.721L201.252 163.098ZM203.949 150.705C203.807 150.122 204.167 149.562 204.732 149.425C205.297 149.288 205.871 149.626 206.012 150.208C206.149 150.777 205.794 151.355 205.229 151.488C204.659 151.625 204.081 151.27 203.949 150.705ZM206.881 161.745L204.925 153.603L206.492 153.23L208.444 161.368L206.881 161.745ZM215.533 159.879C213.089 160.465 210.867 159.134 210.263 156.621C209.66 154.104 211.034 151.908 213.482 151.321C215.91 150.739 218.132 152.07 218.735 154.583C219.339 157.1 217.965 159.296 215.533 159.879ZM228.359 156.591L227.246 151.963C226.852 150.315 225.927 149.831 224.729 150.118C223.26 150.469 222.665 151.723 223.042 153.303L224.078 157.618L222.515 157.991L220.559 149.853L221.976 149.51L222.443 150.722C222.734 149.664 223.633 148.868 224.784 148.59C226.929 148.076 228.23 149.155 228.727 151.235L229.921 156.214L228.359 156.591ZM263.078 82.6069C262.671 83.9041 260.933 86.1173 259.893 87.0249C253.12 92.8941 242.867 88.9813 241.36 80.2909C239.939 72.0672 247.478 65.5301 255.479 67.3024C255.552 67.6663 255.282 67.8033 255.072 68.0259C253.531 69.6484 251.425 71.2495 249.824 72.8463C248.886 73.7753 247.448 75.4662 247.452 76.8576C247.452 76.9774 247.961 79.0023 248.03 79.1693C249.584 82.9837 257.735 82.9366 261.126 82.7097C261.703 82.6711 262.251 82.4357 262.808 82.3329C263.082 82.2859 263.18 82.2901 263.078 82.6069ZM255.89 76.3438C255.916 75.9842 255.826 75.5647 255.89 75.2179C256.061 74.366 259.696 71.5534 260.543 70.8171C261.173 70.7657 262.958 74.1691 263.279 74.8027C260.929 75.6675 258.471 76.6178 255.886 76.3438H255.89ZM299.402 94.1699C291.169 91.0191 284.44 84.9315 279.268 77.9321L275.822 62.1652C285.09 60.2431 294.316 63.0557 301.307 69.2503C308.559 77.3542 316.23 85.9204 322.874 94.5338C322.964 94.6451 323.337 95.2144 323.29 95.2487C315.254 96.9825 307.163 97.1366 299.402 94.1699ZM213.816 152.721C212.237 153.102 211.436 154.54 211.843 156.24C212.254 157.939 213.619 158.86 215.199 158.479C216.766 158.106 217.579 156.659 217.173 154.96C216.766 153.265 215.383 152.344 213.816 152.721ZM182.223 160.2C180.857 160.529 180.189 161.553 180.331 163.03L185.027 161.904C184.701 160.555 183.605 159.866 182.223 160.2ZM161.85 165.196C160.27 165.577 159.469 167.019 159.876 168.715C160.287 170.414 161.653 171.335 163.232 170.958C164.799 170.581 165.612 169.134 165.206 167.439C164.799 165.739 163.416 164.819 161.85 165.196ZM131.613 172.456C130.016 172.842 129.37 174.263 129.768 175.928C130.175 177.606 131.395 178.582 132.991 178.201C134.588 177.816 135.29 176.399 134.879 174.699C134.481 173.034 133.21 172.071 131.613 172.456ZM121.364 174.811C119.999 175.136 119.331 176.164 119.476 177.641L124.168 176.515C123.847 175.166 122.747 174.477 121.364 174.811ZM121.364 174.811C119.999 175.136 119.331 176.164 119.476 177.641L124.168 176.515C123.847 175.166 122.747 174.477 121.364 174.811ZM134.879 174.699C134.481 173.034 133.21 172.071 131.613 172.456C130.016 172.842 129.37 174.263 129.768 175.928C130.175 177.606 131.395 178.582 132.991 178.201C134.588 177.816 135.29 176.399 134.879 174.699ZM165.206 167.439C164.799 165.739 163.416 164.819 161.85 165.196C160.27 165.577 159.469 167.019 159.876 168.715C160.287 170.414 161.653 171.335 163.232 170.958C164.799 170.581 165.612 169.134 165.206 167.439ZM182.223 160.2C180.857 160.529 180.189 161.553 180.331 163.03L185.027 161.904C184.701 160.555 183.605 159.866 182.223 160.2ZM217.173 154.96C216.766 153.265 215.383 152.344 213.816 152.721C212.237 153.102 211.436 154.54 211.843 156.24C212.254 157.939 213.619 158.86 215.199 158.479C216.766 158.106 217.579 156.659 217.173 154.96ZM217.173 154.96C216.766 153.265 215.383 152.344 213.816 152.721C212.237 153.102 211.436 154.54 211.843 156.24C212.254 157.939 213.619 158.86 215.199 158.479C216.766 158.106 217.579 156.659 217.173 154.96ZM182.223 160.2C180.857 160.529 180.189 161.553 180.331 163.03L185.027 161.904C184.701 160.555 183.605 159.866 182.223 160.2ZM165.206 167.439C164.799 165.739 163.416 164.819 161.85 165.196C160.27 165.577 159.469 167.019 159.876 168.715C160.287 170.414 161.653 171.335 163.232 170.958C164.799 170.581 165.612 169.134 165.206 167.439ZM134.879 174.699C134.481 173.034 133.21 172.071 131.613 172.456C130.016 172.842 129.37 174.263 129.768 175.928C130.175 177.606 131.395 178.582 132.991 178.201C134.588 177.816 135.29 176.399 134.879 174.699ZM121.364 174.811C119.999 175.136 119.331 176.164 119.476 177.641L124.168 176.515C123.847 175.166 122.747 174.477 121.364 174.811ZM121.364 174.811C119.999 175.136 119.331 176.164 119.476 177.641L124.168 176.515C123.847 175.166 122.747 174.477 121.364 174.811ZM134.879 174.699C134.481 173.034 133.21 172.071 131.613 172.456C130.016 172.842 129.37 174.263 129.768 175.928C130.175 177.606 131.395 178.582 132.991 178.201C134.588 177.816 135.29 176.399 134.879 174.699ZM165.206 167.439C164.799 165.739 163.416 164.819 161.85 165.196C160.27 165.577 159.469 167.019 159.876 168.715C160.287 170.414 161.653 171.335 163.232 170.958C164.799 170.581 165.612 169.134 165.206 167.439ZM182.223 160.2C180.857 160.529 180.189 161.553 180.331 163.03L185.027 161.904C184.701 160.555 183.605 159.866 182.223 160.2ZM182.223 160.2C180.857 160.529 180.189 161.553 180.331 163.03L185.027 161.904C184.701 160.555 183.605 159.866 182.223 160.2ZM165.206 167.439C164.799 165.739 163.416 164.819 161.85 165.196C160.27 165.577 159.469 167.019 159.876 168.715C160.287 170.414 161.653 171.335 163.232 170.958C164.799 170.581 165.612 169.134 165.206 167.439ZM134.879 174.699C134.481 173.034 133.21 172.071 131.613 172.456C130.016 172.842 129.37 174.263 129.768 175.928C130.175 177.606 131.395 178.582 132.991 178.201C134.588 177.816 135.29 176.399 134.879 174.699ZM121.364 174.811C119.999 175.136 119.331 176.164 119.476 177.641L124.168 176.515C123.847 175.166 122.747 174.477 121.364 174.811ZM121.364 174.811C119.999 175.136 119.331 176.164 119.476 177.641L124.168 176.515C123.847 175.166 122.747 174.477 121.364 174.811ZM134.879 174.699C134.481 173.034 133.21 172.071 131.613 172.456C130.016 172.842 129.37 174.263 129.768 175.928C130.175 177.606 131.395 178.582 132.991 178.201C134.588 177.816 135.29 176.399 134.879 174.699ZM165.206 167.439C164.799 165.739 163.416 164.819 161.85 165.196C160.27 165.577 159.469 167.019 159.876 168.715C160.287 170.414 161.653 171.335 163.232 170.958C164.799 170.581 165.612 169.134 165.206 167.439ZM182.223 160.2C180.857 160.529 180.189 161.553 180.331 163.03L185.027 161.904C184.701 160.555 183.605 159.866 182.223 160.2ZM182.223 160.2C180.857 160.529 180.189 161.553 180.331 163.03L185.027 161.904C184.701 160.555 183.605 159.866 182.223 160.2ZM165.206 167.439C164.799 165.739 163.416 164.819 161.85 165.196C160.27 165.577 159.469 167.019 159.876 168.715C160.287 170.414 161.653 171.335 163.232 170.958C164.799 170.581 165.612 169.134 165.206 167.439ZM134.879 174.699C134.481 173.034 133.21 172.071 131.613 172.456C130.016 172.842 129.37 174.263 129.768 175.928C130.175 177.606 131.395 178.582 132.991 178.201C134.588 177.816 135.29 176.399 134.879 174.699ZM121.364 174.811C119.999 175.136 119.331 176.164 119.476 177.641L124.168 176.515C123.847 175.166 122.747 174.477 121.364 174.811ZM121.364 174.811C119.999 175.136 119.331 176.164 119.476 177.641L124.168 176.515C123.847 175.166 122.747 174.477 121.364 174.811ZM134.879 174.699C134.481 173.034 133.21 172.071 131.613 172.456C130.016 172.842 129.37 174.263 129.768 175.928C130.175 177.606 131.395 178.582 132.991 178.201C134.588 177.816 135.29 176.399 134.879 174.699ZM165.206 167.439C164.799 165.739 163.416 164.819 161.85 165.196C160.27 165.577 159.469 167.019 159.876 168.715C160.287 170.414 161.653 171.335 163.232 170.958C164.799 170.581 165.612 169.134 165.206 167.439ZM165.206 167.439C164.799 165.739 163.416 164.819 161.85 165.196C160.27 165.577 159.469 167.019 159.876 168.715C160.287 170.414 161.653 171.335 163.232 170.958C164.799 170.581 165.612 169.134 165.206 167.439ZM134.879 174.699C134.481 173.034 133.21 172.071 131.613 172.456C130.016 172.842 129.37 174.263 129.768 175.928C130.175 177.606 131.395 178.582 132.991 178.201C134.588 177.816 135.29 176.399 134.879 174.699ZM121.364 174.811C119.999 175.136 119.331 176.164 119.476 177.641L124.168 176.515C123.847 175.166 122.747 174.477 121.364 174.811ZM121.364 174.811C119.999 175.136 119.331 176.164 119.476 177.641L124.168 176.515C123.847 175.166 122.747 174.477 121.364 174.811ZM134.879 174.699C134.481 173.034 133.21 172.071 131.613 172.456C130.016 172.842 129.37 174.263 129.768 175.928C130.175 177.606 131.395 178.582 132.991 178.201C134.588 177.816 135.29 176.399 134.879 174.699ZM134.879 174.699C134.481 173.034 133.21 172.071 131.613 172.456C130.016 172.842 129.37 174.263 129.768 175.928C130.175 177.606 131.395 178.582 132.991 178.201C134.588 177.816 135.29 176.399 134.879 174.699ZM121.364 174.811C119.999 175.136 119.331 176.164 119.476 177.641L124.168 176.515C123.847 175.166 122.747 174.477 121.364 174.811ZM121.364 174.811C119.999 175.136 119.331 176.164 119.476 177.641L124.168 176.515C123.847 175.166 122.747 174.477 121.364 174.811ZM121.364 174.811C119.999 175.136 119.331 176.164 119.476 177.641L124.168 176.515C123.847 175.166 122.747 174.477 121.364 174.811Z" fill="white"/>
<path d="M124.943 75.1623C133.013 73.9893 137.718 87.4744 139.635 93.4464C142.688 102.924 147.328 122.763 142.97 131.821C140.205 137.57 134.447 138.067 130.23 133.469C123.299 125.918 119.018 104.496 118.213 94.3197C117.772 88.7587 117.379 76.2625 124.943 75.1623Z" fill="white"/>
<path d="M173.438 73.1031C174.774 72.8891 176.46 73.6511 177.158 74.8327C177.856 76.0142 179.012 82.654 178.781 84.0025C178.263 87.0549 173.832 87.8597 172.214 85.1199C171.597 84.0796 170.531 78.6171 170.433 77.2429C170.292 75.2094 171.31 73.4413 173.434 73.1031H173.438Z" fill="white"/>
<path d="M208.367 96.9439C213.144 96.1306 214.095 103.305 213.761 106.653C213.354 110.729 208.919 111.328 207.018 107.852C205.648 105.352 204.377 97.6246 208.367 96.9439Z" fill="white"/>
</g>
<defs>
<clipPath id="clip0_984_2729">
<rect width="372.728" height="213.249" fill="white" transform="translate(0.893555 0.574707)"/>
</clipPath>
</defs>
</svg>
