<svg width="64" height="64" viewBox="0 0 64 64" fill="none" xmlns="http://www.w3.org/2000/svg">
<path d="M8 34.6666C8 41.0318 10.5286 47.1363 15.0294 51.6372C19.5303 56.1381 25.6348 58.6666 32 58.6666C32 45.3333 21.2533 34.6666 8 34.6666ZM32 14.6666C33.7681 14.6666 35.4638 15.369 36.714 16.6192C37.9643 17.8695 38.6667 19.5652 38.6667 21.3333C38.6667 23.1014 37.9643 24.7971 36.714 26.0473C35.4638 27.2976 33.7681 28 32 28C30.2319 28 28.5362 27.2976 27.286 26.0473C26.0357 24.7971 25.3333 23.1014 25.3333 21.3333C25.3333 19.5652 26.0357 17.8695 27.286 16.6192C28.5362 15.369 30.2319 14.6666 32 14.6666ZM14.9333 27.3333C14.9333 29.1014 15.6357 30.7971 16.886 32.0473C18.1362 33.2976 19.8319 34 21.6 34C23.0133 34 24.32 33.5466 25.3333 32.8266V33.3333C25.3333 35.1014 26.0357 36.7971 27.286 38.0473C28.5362 39.2976 30.2319 40 32 40C33.7681 40 35.4638 39.2976 36.714 38.0473C37.9643 36.7971 38.6667 35.1014 38.6667 33.3333V32.8266C39.68 33.5466 40.9867 34 42.4 34C44.1681 34 45.8638 33.2976 47.114 32.0473C48.3643 30.7971 49.0667 29.1014 49.0667 27.3333C49.0667 24.6666 47.4933 22.4 45.2533 21.3333C47.4933 20.2666 49.0667 17.9733 49.0667 15.3333C49.0667 13.5652 48.3643 11.8695 47.114 10.6192C45.8638 9.36901 44.1681 8.66663 42.4 8.66663C40.9867 8.66663 39.68 9.09329 38.6667 9.83996V9.33329C38.6667 7.56518 37.9643 5.86949 36.714 4.61925C35.4638 3.369 33.7681 2.66663 32 2.66663C30.2319 2.66663 28.5362 3.369 27.286 4.61925C26.0357 5.86949 25.3333 7.56518 25.3333 9.33329V9.83996C24.32 9.09329 23.0133 8.66663 21.6 8.66663C19.8319 8.66663 18.1362 9.36901 16.886 10.6192C15.6357 11.8695 14.9333 13.5652 14.9333 15.3333C14.9333 17.9733 16.5067 20.2666 18.7467 21.3333C16.5067 22.4 14.9333 24.6666 14.9333 27.3333ZM32 58.6666C38.3652 58.6666 44.4697 56.1381 48.9706 51.6372C53.4714 47.1363 56 41.0318 56 34.6666C42.6667 34.6666 32 45.3333 32 58.6666Z" fill="white"/>
</svg>
