<svg width="33" height="29" viewBox="0 0 33 29" fill="none" xmlns="http://www.w3.org/2000/svg">
<path d="M0 20.3368C0 17.8128 1.04676 14.6757 3.14028 10.9256C5.2338 7.10347 8.08532 3.46159 11.6948 0C12.8499 0 13.6079 0.540873 13.9688 1.62262C10.2149 7.03135 8.33799 11.3583 8.33799 14.6036C10.7203 16.5507 12.6333 19.1109 14.0771 22.284C11.4061 25.3129 8.62675 27.3682 5.73913 28.4499C4.43971 27.3682 3.21247 26.034 2.05743 24.4475C0.97457 22.7888 0.288761 21.4186 0 20.3368ZM17.9754 20.3368C17.9754 17.8128 19.0222 14.6757 21.1157 10.9256C23.2092 7.10347 26.0607 3.46159 29.6702 0C30.8975 0 31.6916 0.540873 32.0525 1.62262C28.2986 6.88712 26.4217 11.2141 26.4217 14.6036C28.8039 16.5507 30.717 19.1109 32.1608 22.284C29.4898 25.3129 26.7104 27.3682 23.8228 28.4499C22.5234 27.3682 21.2962 26.034 20.1411 24.4475C19.0583 22.7888 18.3363 21.4186 17.9754 20.3368Z" fill="white"/>
</svg>
