<svg width="164" height="164" viewBox="0 0 164 164" fill="none" xmlns="http://www.w3.org/2000/svg">
<path d="M67.2144 13.899C67.9797 14.1632 68.7291 14.473 69.4625 14.8283L78.2297 19.147C79.4032 19.7246 80.6937 20.025 82.0017 20.025C83.3097 20.025 84.6002 19.7246 85.7737 19.147L94.5409 14.8283C96.7551 13.7383 99.1623 13.0951 101.625 12.9355C104.088 12.7759 106.558 13.1029 108.894 13.898C111.231 14.6931 113.388 15.9406 115.242 17.5694C117.096 19.1981 118.611 21.1761 119.701 23.3905L120.2 24.4975L120.631 25.6387L123.774 34.8842C124.628 37.3988 126.603 39.3668 129.111 40.221L138.363 43.3643C140.894 44.2254 143.212 45.6166 145.162 47.4449C147.113 49.2732 148.65 51.4967 149.673 53.9667C150.696 56.4367 151.179 59.0965 151.092 61.7684C151.005 64.4403 150.348 67.0629 149.167 69.4608L144.855 78.228C144.277 79.4015 143.977 80.692 143.977 82C143.977 83.308 144.277 84.5985 144.855 85.772L149.167 94.5392C150.347 96.9369 151.003 99.5587 151.089 102.23C151.176 104.901 150.692 107.56 149.669 110.029C148.647 112.498 147.11 114.721 145.16 116.549C143.21 118.377 140.893 119.768 138.363 120.629L129.111 123.772C127.873 124.194 126.749 124.895 125.825 125.82C124.901 126.746 124.201 127.871 123.781 129.109L120.631 138.361C119.769 140.891 118.378 143.208 116.551 145.158C114.723 147.108 112.5 148.645 110.031 149.668C107.562 150.69 104.903 151.174 102.232 151.088C99.5604 151.001 96.9385 150.345 94.5409 149.165L85.7737 144.853C84.6002 144.275 83.3097 143.975 82.0017 143.975C80.6937 143.975 79.4032 144.275 78.2297 144.853L69.4625 149.165C67.0649 150.345 64.443 151.001 61.7718 151.088C59.1007 151.174 56.4418 150.69 53.9726 149.668C51.5034 148.645 49.2807 147.108 47.4529 145.158C45.625 143.208 44.2341 140.891 43.3729 138.361L40.2295 129.109C39.8066 127.871 39.1048 126.746 38.1783 125.822C37.2518 124.898 36.1253 124.199 34.8859 123.779L25.6404 120.629C23.1098 119.768 20.7919 118.378 18.8415 116.55C16.891 114.723 15.3529 112.5 14.3297 110.031C13.3066 107.562 12.822 104.903 12.9082 102.231C12.9945 99.5596 13.6497 96.9373 14.83 94.5392L19.1487 85.772C19.7263 84.5985 20.0267 83.308 20.0267 82C20.0267 80.692 19.7263 79.4015 19.1487 78.228L14.83 69.4608C13.6497 67.0627 12.9945 64.4404 12.9082 61.7689C12.822 59.0975 13.3066 56.4383 14.3297 53.9691C15.3529 51.4998 16.891 49.2772 18.8415 47.4496C20.7919 45.6221 23.1098 44.2317 25.6404 43.3712L34.8859 40.2278C36.1255 39.8058 37.2516 39.1044 38.1769 38.1779C39.1023 37.2513 39.8023 36.1244 40.2227 34.8842L43.366 25.6387C44.1606 23.3016 45.4079 21.144 47.0366 19.2891C48.6652 17.4342 50.6434 15.9184 52.8581 14.8282C55.0727 13.738 57.4805 13.0948 59.9438 12.9354C62.4071 12.7759 64.8777 13.1034 67.2144 13.899ZM105.713 61.2882L68.6767 98.3248L55.1877 82.1298C54.7629 81.5945 54.2354 81.1495 53.6361 80.8211C53.0369 80.4926 52.3779 80.2874 51.6982 80.2173C51.0184 80.1473 50.3315 80.2139 49.6778 80.4133C49.0242 80.6127 48.417 80.9407 47.892 81.3782C47.367 81.8157 46.9348 82.3538 46.6209 82.9608C46.3069 83.5677 46.1175 84.2314 46.0638 84.9126C46.0101 85.5939 46.0932 86.279 46.3082 86.9277C46.5232 87.5764 46.8657 88.1755 47.3157 88.6898L64.399 109.19C64.8545 109.737 65.4189 110.183 66.0563 110.5C66.6937 110.816 67.3901 110.997 68.1011 111.03C68.8121 111.062 69.5221 110.947 70.1859 110.69C70.8497 110.433 71.4528 110.041 71.9567 109.538L112.957 68.5383C113.46 68.0691 113.864 67.5033 114.144 66.8747C114.424 66.246 114.575 65.5674 114.587 64.8792C114.599 64.1911 114.473 63.5076 114.215 62.8694C113.957 62.2313 113.573 61.6516 113.087 61.1649C112.6 60.6783 112.02 60.2946 111.382 60.0368C110.744 59.7791 110.061 59.6525 109.372 59.6646C108.684 59.6768 108.006 59.8274 107.377 60.1075C106.748 60.3876 106.183 60.7915 105.713 61.295" fill="#176638"/>
</svg>
