<svg width="14" height="14" viewBox="0 0 14 14" fill="none" xmlns="http://www.w3.org/2000/svg">
<path d="M7.00016 0.333344C10.682 0.333431 13.6668 3.31816 13.6668 7.00001C13.6668 10.6818 10.6819 13.6666 7.00016 13.6667C3.31827 13.6667 0.333507 10.6819 0.333496 7.00001C0.333496 3.31811 3.31826 0.333344 7.00016 0.333344ZM10.1737 4.44728C9.86838 4.16743 9.39401 4.188 9.11409 4.49317L5.9764 7.9157L4.86377 6.80307L4.8068 6.75164C4.51225 6.51138 4.07782 6.52855 3.80322 6.80307C3.51033 7.09596 3.51033 7.57072 3.80322 7.86362L5.46989 9.53028C5.61453 9.67488 5.81196 9.75412 6.01644 9.74968C6.22086 9.7452 6.41471 9.65755 6.5529 9.50685L10.2196 5.50685C10.4993 5.20156 10.4788 4.72717 10.1737 4.44728Z" fill="#2ECC71"/>
</svg>
