<svg width="64" height="64" viewBox="0 0 64 64" fill="none" xmlns="http://www.w3.org/2000/svg">
<path d="M33.063 5.33337L33.7376 5.34671C36.5878 5.46202 39.3625 6.2966 41.8034 7.77278C44.2442 9.24895 46.2719 11.3187 47.6976 13.7894L47.935 14.224L48.4096 14.328C50.8575 14.9016 53.1464 16.0147 55.1091 17.5861C57.0717 19.1575 58.6585 21.1475 59.7536 23.4107L60.0336 24.0187C61.1483 26.5754 61.6124 29.3683 61.3847 32.1481C61.157 34.9278 60.2444 37.608 58.7286 39.9491C57.2127 42.2903 55.1406 44.2197 52.6974 45.565C50.2542 46.9102 47.5159 47.6296 44.727 47.6587L44.343 47.6534L44.2443 47.792C42.5863 49.9776 40.3238 51.629 37.7369 52.5419C35.1499 53.4548 32.3521 53.589 29.6896 52.928L29.1936 52.792L20.0336 58.2854C19.6512 58.5149 19.2173 58.6448 18.7717 58.6632C18.3261 58.6817 17.8829 58.588 17.4828 58.3909C17.0828 58.1938 16.7385 57.8995 16.4816 57.5349C16.2247 57.1703 16.0633 56.7471 16.0123 56.304L15.9963 56V49.5067L15.8496 49.4374C14.0991 48.5513 12.6553 47.1595 11.7056 45.4427L11.4336 44.912C10.5894 43.1366 10.2995 41.148 10.6016 39.2054L10.703 38.6454L10.3936 38.4C8.09263 36.4942 6.39293 33.9626 5.49994 31.1114C4.60695 28.2602 4.55891 25.2113 5.36162 22.3334L5.55095 21.6987C6.54807 18.6354 8.47682 15.9599 11.0679 14.0457C13.6591 12.1316 16.7832 11.0742 20.0043 11.0214H20.423L20.823 10.5814C23.8455 7.4025 27.9868 5.52505 32.3696 5.34671L33.063 5.33337ZM37.3296 34.6667H23.9963C23.289 34.6667 22.6108 34.9477 22.1107 35.4478C21.6106 35.9479 21.3296 36.6261 21.3296 37.3334C21.3296 38.0406 21.6106 38.7189 22.1107 39.219C22.6108 39.7191 23.289 40 23.9963 40H37.3296C38.0369 40 38.7151 39.7191 39.2152 39.219C39.7153 38.7189 39.9963 38.0406 39.9963 37.3334C39.9963 36.6261 39.7153 35.9479 39.2152 35.4478C38.7151 34.9477 38.0369 34.6667 37.3296 34.6667ZM45.3296 24H18.663C17.9557 24 17.2774 24.281 16.7773 24.7811C16.2772 25.2812 15.9963 25.9595 15.9963 26.6667C15.9963 27.374 16.2772 28.0522 16.7773 28.5523C17.2774 29.0524 17.9557 29.3334 18.663 29.3334H45.3296C46.0369 29.3334 46.7151 29.0524 47.2152 28.5523C47.7153 28.0522 47.9963 27.374 47.9963 26.6667C47.9963 25.9595 47.7153 25.2812 47.2152 24.7811C46.7151 24.281 46.0369 24 45.3296 24Z" fill="white"/>
<path d="M37.3296 34.6667H23.9963C23.289 34.6667 22.6108 34.9477 22.1107 35.4478C21.6106 35.9479 21.3296 36.6261 21.3296 37.3334C21.3296 38.0406 21.6106 38.7189 22.1107 39.219C22.6108 39.7191 23.289 40 23.9963 40H37.3296C38.0369 40 38.7151 39.7191 39.2152 39.219C39.7153 38.7189 39.9963 38.0406 39.9963 37.3334C39.9963 36.6261 39.7153 35.9479 39.2152 35.4478C38.7151 34.9477 38.0369 34.6667 37.3296 34.6667Z" fill="white"/>
<path d="M45.3296 24H18.663C17.9557 24 17.2774 24.281 16.7773 24.7811C16.2772 25.2812 15.9963 25.9595 15.9963 26.6667C15.9963 27.374 16.2772 28.0522 16.7773 28.5523C17.2774 29.0524 17.9557 29.3334 18.663 29.3334H45.3296C46.0369 29.3334 46.7151 29.0524 47.2152 28.5523C47.7153 28.0522 47.9963 27.374 47.9963 26.6667C47.9963 25.9595 47.7153 25.2812 47.2152 24.7811C46.7151 24.281 46.0369 24 45.3296 24Z" fill="white"/>
</svg>
